<?xml version="1.0" encoding="utf-8"?>
<!-- Generator: Adobe Illustrator 16.0.0, SVG Export Plug-In . SVG Version: 6.00 Build 0)  -->
<!DOCTYPE svg PUBLIC "-//W3C//DTD SVG 1.1//EN" "http://www.w3.org/Graphics/SVG/1.1/DTD/svg11.dtd">
<svg version="1.1" id="Layer_1" xmlns="http://www.w3.org/2000/svg" xmlns:xlink="http://www.w3.org/1999/xlink" x="0px" y="0px"
	 width="168px" height="53px" viewBox="0 0 168 53" enable-background="new 0 0 168 53" xml:space="preserve">
<g>
	<g>
		<g>
			<path stroke="#000000" stroke-miterlimit="10" d="M102.84,7.764C97.84,2.753,91.184,0,84.104,0
				c-7.081,0-13.736,2.753-18.736,7.764c-5.01,5-7.764,11.656-7.764,18.736c0,7.08,2.753,13.736,7.764,18.736
				C70.377,50.246,77.023,53,84.104,53c7.08,0,13.736-2.754,18.736-7.764c5.01-5.01,7.764-11.656,7.764-18.736
				C110.604,19.419,107.85,12.764,102.84,7.764z M101.732,44.129c-4.71,4.71-10.963,7.298-17.629,7.298
				c-6.667,0-12.919-2.588-17.629-7.298c-4.699-4.71-7.298-10.973-7.298-17.629s2.588-12.919,7.298-17.629
				c4.71-4.699,10.973-7.298,17.629-7.298s12.919,2.588,17.629,7.298s7.298,10.962,7.298,17.629
				C109.03,33.166,106.432,39.419,101.732,44.129z"/>
			<path stroke="#000000" stroke-miterlimit="10" d="M104.269,17.908l-1.429,0.663c1.346,2.877,2.029,5.983,2.029,9.203h1.573
				C106.442,24.316,105.718,21.003,104.269,17.908z"/>
			<path stroke="#000000" stroke-miterlimit="10" d="M99.89,11.086C95.48,6.677,89.61,4.244,83.379,4.244v1.573
				c5.817,0,11.283,2.267,15.403,6.377c1.335,1.335,2.484,2.826,3.427,4.43l1.355-0.797C102.55,14.109,101.318,12.515,99.89,11.086z
				"/>
		</g>
		<g>
			<g>
				<path stroke="#000000" stroke-miterlimit="10" d="M92.758,32.007c0,0-0.353,0-0.9,0c-1.553,0-4.451,0.29-6.336,2.174
					c-0.248,0.249-0.466,0.518-0.662,0.808v-4.285h0.093c1.553,0,4.451-0.279,6.335-2.174c2.588-2.588,2.153-7.05,2.143-7.236
					c-0.041-0.352-0.32-0.631-0.672-0.673c0,0-0.353,0-0.9,0c-1.553,0-4.451,0.29-6.336,2.174c-0.248,0.249-0.466,0.518-0.662,0.808
					v-1.967c0.849-0.756,3.322-3.292,3.322-6.387c0-3.654-3.457-6.511-3.602-6.625c-0.28-0.228-0.673-0.228-0.953,0
					c-0.155,0.124-3.603,2.981-3.603,6.625c0,3.095,2.484,5.621,3.323,6.387v1.925c-0.196-0.29-0.414-0.559-0.662-0.818
					c-1.895-1.894-4.783-2.174-6.335-2.174c-0.548,0-0.9,0-0.9,0c-0.352,0.042-0.631,0.321-0.673,0.673
					c0,0.187-0.445,4.648,2.143,7.235c1.895,1.895,4.783,2.174,6.335,2.174h0.093v4.244c-0.196-0.279-0.424-0.527-0.673-0.766
					c-1.894-1.895-4.782-2.174-6.335-2.174c-0.549,0-0.9,0-0.9,0c-0.352,0.041-0.632,0.321-0.673,0.673
					c0,0.187-0.445,4.647,2.143,7.235c1.895,1.895,4.782,2.174,6.335,2.174h0.093v6.17c0,0.414,0.342,0.756,0.756,0.756
					c0.415,0,0.755-0.342,0.755-0.756V42.09h0.083c1.553,0,4.451-0.279,6.335-2.174c2.588-2.588,2.153-7.05,2.144-7.236
					C93.389,32.328,93.109,32.049,92.758,32.007z M77.996,27.473c-1.563-1.562-1.739-4.171-1.739-5.372h0.093
					c1.066,0,3.706,0.166,5.279,1.739c1.574,1.573,1.739,4.172,1.739,5.372C82.344,29.232,79.611,29.088,77.996,27.473z
					 M83.369,40.578c-1.025,0.021-3.758-0.124-5.373-1.739c-1.563-1.563-1.739-4.171-1.739-5.372c1.035,0,3.768,0.124,5.373,1.738
					C83.234,36.82,83.379,39.388,83.369,40.578z M84.135,20.289L84.135,20.289c-0.87-0.849-2.578-2.815-2.578-5.031
					s1.718-4.172,2.567-5.021c0.859,0.849,2.567,2.815,2.567,5.021C86.691,17.463,84.994,19.44,84.135,20.289z M86.619,23.829
					l-0.041,0.011c1.562-1.563,4.213-1.739,5.279-1.739h0.093c0,1.201-0.155,3.768-1.739,5.372c-1.584,1.605-4.338,1.76-5.373,1.739
					C84.869,27.98,85.045,25.403,86.619,23.829z M90.252,38.85c-1.573,1.604-4.202,1.738-5.279,1.738H84.88
					c0-1.211,0.176-3.809,1.739-5.372l-0.011-0.011c1.563-1.562,4.214-1.738,5.279-1.738h0.093
					C91.98,34.668,91.826,37.245,90.252,38.85z"/>
			</g>
		</g>
	</g>
</g>
</svg>
