<?xml version="1.0" encoding="utf-8"?>
<!-- Generator: Adobe Illustrator 16.0.0, SVG Export Plug-In . SVG Version: 6.00 Build 0)  -->
<!DOCTYPE svg PUBLIC "-//W3C//DTD SVG 1.1//EN" "http://www.w3.org/Graphics/SVG/1.1/DTD/svg11.dtd">
<svg version="1.1" id="Layer_1" xmlns="http://www.w3.org/2000/svg" xmlns:xlink="http://www.w3.org/1999/xlink" x="0px" y="0px"
	 width="168px" height="53px" viewBox="0 0 168 53" enable-background="new 0 0 168 53" xml:space="preserve">
<g>
	<g>
		<path stroke="#000000" stroke-width="0.25" stroke-miterlimit="10" d="M96.184,0H71.816C63.928,0,57.5,6.428,57.5,14.316v24.357
			C57.5,46.572,63.928,53,71.816,53h24.357c7.898,0,14.316-6.428,14.316-14.316V14.316C110.5,6.428,104.072,0,96.184,0z
			 M106.215,38.684c0,5.538-4.504,10.041-10.041,10.041H71.816c-5.538,0-10.041-4.503-10.041-10.041V14.316
			c0-5.538,4.503-10.041,10.041-10.041h24.357c5.537,0,10.041,4.503,10.041,10.041V38.684z"/>
	</g>
</g>
<g>
	<g>
		<path d="M95.863,24.647c-0.373-2.536-1.532-4.844-3.354-6.656c-1.812-1.812-4.12-2.971-6.655-3.354
			c-1.16-0.176-2.33-0.176-3.489,0c-3.136,0.466-5.911,2.122-7.805,4.679c-1.895,2.557-2.681,5.683-2.215,8.82
			c0.466,3.136,2.122,5.911,4.679,7.805c2.07,1.532,4.524,2.34,7.06,2.34c0.59,0,1.18-0.042,1.771-0.135
			c3.136-0.466,5.91-2.122,7.805-4.679C95.542,30.92,96.328,27.794,95.863,24.647z M85.222,33.912
			c-2.008,0.3-4.017-0.207-5.642-1.418c-1.625-1.212-2.691-2.982-2.992-4.99s0.207-4.016,1.418-5.642
			c1.211-1.635,2.981-2.691,4.99-2.991c0.373-0.052,0.745-0.083,1.118-0.083s0.746,0.031,1.119,0.083
			c3.332,0.497,5.91,3.064,6.407,6.407C92.24,29.43,89.373,33.301,85.222,33.912z"/>
	</g>
</g>
<g>
	<g>
		<path d="M98.906,11.594c-0.404-0.404-0.952-0.631-1.512-0.631c-0.559,0-1.117,0.228-1.511,0.631
			c-0.403,0.404-0.632,0.952-0.632,1.511c0,0.569,0.229,1.118,0.632,1.511c0.403,0.404,0.952,0.632,1.511,0.632
			c0.56,0,1.118-0.228,1.512-0.632c0.404-0.403,0.631-0.952,0.631-1.511C99.537,12.536,99.311,11.987,98.906,11.594z"/>
	</g>
</g>
</svg>
