<?xml version="1.0" encoding="utf-8"?>
<!-- Generator: Adobe Illustrator 16.0.0, SVG Export Plug-In . SVG Version: 6.00 Build 0)  -->
<!DOCTYPE svg PUBLIC "-//W3C//DTD SVG 1.1//EN" "http://www.w3.org/Graphics/SVG/1.1/DTD/svg11.dtd">
<svg version="1.1" id="Layer_1" xmlns="http://www.w3.org/2000/svg" xmlns:xlink="http://www.w3.org/1999/xlink" x="0px" y="0px"
	 width="168px" height="53px" viewBox="0 0 168 53" enable-background="new 0 0 168 53" xml:space="preserve">
<g>
	<g>
		<path stroke="#000000" stroke-width="2" stroke-miterlimit="10" d="M108.14,39.916c-1.149-1.377-2.453-2.619-3.716-3.81
			c-0.445-0.425-0.9-0.849-1.346-1.284l0,0c-0.59-0.579-0.88-0.993-0.911-1.293c-0.031-0.301,0.176-0.746,0.642-1.398
			c0.704-0.982,1.449-1.967,2.174-2.919c0.643-0.849,1.305-1.718,1.946-2.598l0.146-0.197c1.242-1.718,2.525-3.499,3.209-5.662
			c0.196-0.621,0.403-1.542-0.094-2.35c-0.497-0.808-1.408-1.046-2.05-1.16c-0.311-0.052-0.61-0.062-0.89-0.062l-8.054-0.01
			c-1.397-0.021-2.36,0.642-2.888,1.967c-0.425,1.056-0.922,2.288-1.491,3.447c-1.107,2.247-2.505,4.835-4.534,6.987l-0.093,0.094
			c-0.135,0.145-0.362,0.393-0.477,0.445c-0.218-0.135-0.476-0.932-0.466-1.346c0-0.011,0-0.021,0-0.031l-0.01-9.307
			c0-0.052,0-0.093-0.011-0.145c-0.176-1.325-0.528-2.661-2.63-3.075c-0.072-0.01-0.134-0.021-0.207-0.021h-8.374
			c-1.573,0-2.412,0.725-3.074,1.501c-0.197,0.228-0.704,0.838-0.445,1.573c0.27,0.746,1.056,0.901,1.315,0.953
			c0.911,0.176,1.387,0.693,1.532,1.677c0.29,1.915,0.321,3.965,0.114,6.449c-0.062,0.662-0.166,1.169-0.352,1.594
			c-0.052,0.114-0.093,0.187-0.125,0.228c-0.052-0.021-0.124-0.051-0.228-0.124c-0.642-0.435-1.128-1.118-1.594-1.78
			c-1.863-2.64-3.437-5.548-4.803-8.902c-0.559-1.377-1.615-2.143-2.971-2.164c-2.578-0.042-4.969-0.042-7.298,0
			c-1.097,0.021-1.863,0.362-2.288,1.025s-0.404,1.511,0.042,2.516c3.229,7.184,6.159,12.4,9.502,16.936
			c2.36,3.188,4.731,5.402,7.463,6.977c2.878,1.646,6.118,2.453,9.876,2.453c0.424,0,0.859-0.01,1.304-0.031
			c2.319-0.104,3.261-1.024,3.364-3.291c0.062-1.191,0.187-2.164,0.652-3.002c0.124-0.238,0.279-0.395,0.394-0.425
			c0.124-0.031,0.341,0.041,0.579,0.196c0.436,0.29,0.818,0.673,1.129,1.015s0.631,0.704,0.941,1.046
			c0.652,0.734,1.336,1.49,2.05,2.215c1.604,1.636,3.468,2.391,5.518,2.236h7.37l0,0c0.021,0,0.052,0,0.072,0
			c0.85-0.053,1.584-0.528,2.02-1.295c0.518-0.921,0.507-2.09-0.021-3.115C109.506,41.604,108.781,40.682,108.14,39.916z
			 M108.243,44.76c-0.104,0.176-0.228,0.218-0.29,0.218h-7.37l0,0c-0.03,0-0.062,0-0.083,0c-1.449,0.124-2.681-0.394-3.881-1.604
			c-0.674-0.693-1.336-1.429-1.978-2.143c-0.311-0.352-0.632-0.715-0.963-1.066c-0.403-0.435-0.9-0.941-1.542-1.355
			c-0.953-0.621-1.75-0.602-2.246-0.477c-0.487,0.124-1.191,0.477-1.729,1.449c-0.693,1.263-0.849,2.629-0.911,3.923
			c-0.031,0.787-0.165,0.994-0.228,1.046c-0.072,0.072-0.321,0.186-1.128,0.228c-3.913,0.187-7.194-0.518-10.031-2.143
			c-2.474-1.419-4.638-3.447-6.812-6.397c-3.25-4.399-6.107-9.503-9.275-16.542c-0.114-0.259-0.155-0.414-0.155-0.497
			c0.083-0.031,0.238-0.062,0.518-0.062c2.298-0.042,4.668-0.042,7.226,0c0.352,0.01,0.745,0.114,1.045,0.849
			c1.428,3.509,3.074,6.553,5.031,9.326c0.518,0.735,1.17,1.646,2.122,2.299c0.87,0.6,1.584,0.569,2.019,0.445
			c0.445-0.125,1.056-0.486,1.47-1.46c0.27-0.632,0.425-1.335,0.507-2.235c0.228-2.661,0.187-4.866-0.124-6.946
			c-0.217-1.491-0.994-2.567-2.205-3.116c0.217-0.114,0.456-0.155,0.797-0.155h8.271c0.466,0.104,0.56,0.228,0.591,0.27
			c0.134,0.176,0.207,0.6,0.258,0.932l0.011,9.224c-0.021,0.879,0.414,2.846,1.874,3.385c0.01,0,0.021,0.01,0.041,0.01
			c1.336,0.436,2.215-0.507,2.682-1.014l0.082-0.094c2.226-2.36,3.727-5.124,4.896-7.505c0.611-1.232,1.129-2.505,1.562-3.603
			c0.218-0.548,0.414-0.642,0.891-0.631c0.011,0,0.011,0,0.021,0l8.063,0.01c0.187,0,0.383,0,0.538,0.031
			c0.383,0.062,0.538,0.145,0.59,0.176c0.011,0.062,0,0.238-0.113,0.601c-0.59,1.843-1.719,3.406-2.909,5.062l-0.146,0.197
			c-0.621,0.859-1.283,1.729-1.914,2.566c-0.735,0.963-1.491,1.967-2.205,2.972c-1.532,2.143-1.397,3.561,0.518,5.424
			c0.455,0.445,0.91,0.88,1.366,1.305c1.273,1.2,2.474,2.339,3.54,3.623c0.559,0.673,1.201,1.49,1.656,2.381
			C108.43,44.118,108.367,44.543,108.243,44.76z"/>
	</g>
</g>
</svg>
